<?xml version="1.0" standalone="no"?>
<!DOCTYPE svg PUBLIC "-//W3C//DTD SVG 20010904//EN"
 "http://www.w3.org/TR/2001/REC-SVG-20010904/DTD/svg10.dtd">
<svg version="1.0" xmlns="http://www.w3.org/2000/svg"
 width="512.000000pt" height="512.000000pt" viewBox="0 0 512.000000 512.000000"
 preserveAspectRatio="xMidYMid meet">

<g transform="translate(0.000000,512.000000) scale(0.100000,-0.100000)"
fill="orange" stroke="none">
<path d="M2895 4949 c-21 -5 -64 -22 -95 -38 -30 -15 -431 -264 -890 -552
l-835 -524 -325 -5 c-305 -5 -329 -7 -385 -28 -177 -66 -322 -236 -354 -416
-15 -82 -15 -1570 0 -1652 6 -32 28 -95 49 -139 65 -134 181 -235 323 -280 76
-24 87 -25 380 -25 l302 0 185 -116 c1003 -630 1549 -968 1593 -986 38 -16 74
-22 137 -22 74 -1 93 3 142 27 101 49 166 147 187 277 15 90 15 4090 0 4180
-29 182 -146 298 -307 306 -37 2 -85 -1 -107 -7z m114 -326 c15 -54 15 -4073
0 -4127 -10 -35 -13 -38 -40 -32 -16 3 -406 241 -866 530 l-838 524 0 1042 0
1042 830 520 c457 286 839 524 850 528 40 17 54 11 64 -27z m-2049 -2063 l0
-970 -235 0 c-177 0 -244 3 -269 14 -46 19 -104 72 -129 120 l-22 41 0 795 0
795 22 41 c25 46 82 100 127 120 23 10 93 13 269 14 l237 0 0 -970z"/>
<path d="M4179 4385 c-38 -25 -46 -38 -59 -93 -14 -56 6 -97 91 -190 522 -565
721 -1327 543 -2077 -88 -367 -278 -720 -543 -1007 -85 -93 -105 -133 -91
-191 22 -99 129 -148 217 -99 36 20 157 150 248 266 712 915 712 2217 0 3132
-91 116 -212 246 -248 267 -46 25 -115 22 -158 -8z"/>
<path d="M3738 3939 c-62 -32 -94 -117 -68 -183 5 -14 38 -57 74 -96 219 -238
354 -512 412 -835 24 -137 24 -393 0 -530 -58 -323 -193 -597 -412 -835 -91
-99 -103 -143 -64 -220 22 -43 80 -80 125 -80 68 0 108 32 244 195 299 359
461 871 423 1338 -38 455 -190 808 -502 1166 -87 99 -153 122 -232 80z"/>
</g>
</svg>
