<?xml version="1.0" standalone="no"?>
<!DOCTYPE svg PUBLIC "-//W3C//DTD SVG 20010904//EN"
 "http://www.w3.org/TR/2001/REC-SVG-20010904/DTD/svg10.dtd">
<svg version="1.0" xmlns="http://www.w3.org/2000/svg"
  width="50" height="50" viewBox="0 0 512.000000 512.000000"
 preserveAspectRatio="xMidYMid meet">

<g transform="translate(0.000000,512.000000) scale(0.100000,-0.100000)"
fill="orange" stroke="none">
<path d="M2690 4694 c-30 -8 -72 -25 -95 -37 -22 -13 -357 -246 -745 -518
l-705 -494 -330 -6 c-307 -5 -334 -7 -393 -28 -166 -57 -281 -189 -311 -355
-15 -82 -15 -1310 0 -1392 36 -196 197 -347 399 -374 41 -5 199 -10 350 -10
l276 0 728 -510 c484 -339 747 -516 784 -531 72 -27 217 -36 304 -19 184 36
334 186 368 369 14 74 14 3468 0 3542 -33 178 -181 331 -358 368 -73 15 -206
13 -272 -5z m266 -319 c15 -11 35 -36 45 -55 18 -33 19 -100 19 -1760 0 -1660
-1 -1727 -19 -1760 -31 -58 -62 -74 -150 -78 -57 -3 -86 0 -107 11 -16 9 -339
234 -719 500 l-690 484 0 843 0 843 640 449 c352 247 674 472 715 499 l74 51
83 -4 c63 -2 88 -8 109 -23z m-1936 -1815 l0 -771 -254 3 c-280 3 -279 3 -330
72 -21 27 -21 39 -24 669 -2 353 0 656 3 674 7 40 49 91 90 109 22 10 94 13
273 14 l242 0 0 -770z"/>
<path d="M3863 3150 c-57 -34 -82 -95 -68 -167 6 -32 37 -68 198 -230 l191
-193 -191 -193 c-204 -206 -214 -220 -199 -301 17 -91 119 -141 213 -105 15 6
111 93 213 195 l185 184 180 -181 c99 -99 192 -187 207 -195 41 -21 114 -18
156 8 35 22 71 84 72 126 0 54 -35 101 -213 279 l-181 183 181 183 c178 178
213 225 213 279 -1 42 -37 104 -72 126 -42 26 -115 29 -156 8 -15 -8 -108 -96
-207 -195 l-180 -181 -185 184 c-102 102 -198 189 -213 195 -44 17 -109 13
-144 -9z"/>
</g>
</svg>
